<mxfile host="app.diagrams.net" agent="Mozilla/5.0 (X11; Linux x86_64) AppleWebKit/537.36 (KHTML, like Gecko) Chrome/131.0.0.0 Safari/537.36" version="25.0.3">
  <diagram name="Page-1" id="Ynz6Q_ms0iytzOC9sSTn">
    <mxGraphModel dx="1050" dy="570" grid="1" gridSize="10" guides="1" tooltips="1" connect="1" arrows="1" fold="1" page="1" pageScale="1" pageWidth="1169" pageHeight="827" math="0" shadow="0">
      <root>
        <mxCell id="0" />
        <mxCell id="1" parent="0" />
        <mxCell id="-XFVrn_bKcjzjWk29BsW-2" value="Proveedores" style="whiteSpace=wrap;html=1;align=center;" vertex="1" parent="1">
          <mxGeometry x="150" y="270" width="100" height="40" as="geometry" />
        </mxCell>
        <mxCell id="-XFVrn_bKcjzjWk29BsW-3" value="Código" style="ellipse;whiteSpace=wrap;html=1;align=center;fontStyle=4;" vertex="1" parent="1">
          <mxGeometry x="120" y="170" width="100" height="40" as="geometry" />
        </mxCell>
        <mxCell id="-XFVrn_bKcjzjWk29BsW-4" value="Nombre" style="ellipse;whiteSpace=wrap;html=1;align=center;" vertex="1" parent="1">
          <mxGeometry x="230" y="200" width="100" height="40" as="geometry" />
        </mxCell>
        <mxCell id="-XFVrn_bKcjzjWk29BsW-5" value="Dirección" style="ellipse;whiteSpace=wrap;html=1;align=center;" vertex="1" parent="1">
          <mxGeometry x="30" y="330" width="100" height="40" as="geometry" />
        </mxCell>
        <mxCell id="-XFVrn_bKcjzjWk29BsW-6" value="Web" style="ellipse;whiteSpace=wrap;html=1;align=center;" vertex="1" parent="1">
          <mxGeometry x="30" y="200" width="100" height="40" as="geometry" />
        </mxCell>
        <mxCell id="-XFVrn_bKcjzjWk29BsW-7" value="Teléfonos" style="ellipse;shape=doubleEllipse;margin=3;whiteSpace=wrap;html=1;align=center;" vertex="1" parent="1">
          <mxGeometry x="310" y="430" width="100" height="40" as="geometry" />
        </mxCell>
        <mxCell id="-XFVrn_bKcjzjWk29BsW-9" value="Teléfono" style="ellipse;whiteSpace=wrap;html=1;align=center;" vertex="1" parent="1">
          <mxGeometry x="10" y="260" width="100" height="40" as="geometry" />
        </mxCell>
        <mxCell id="-XFVrn_bKcjzjWk29BsW-10" value="Clientes" style="whiteSpace=wrap;html=1;align=center;" vertex="1" parent="1">
          <mxGeometry x="440" y="450" width="100" height="40" as="geometry" />
        </mxCell>
        <mxCell id="-XFVrn_bKcjzjWk29BsW-12" value="Código" style="ellipse;whiteSpace=wrap;html=1;align=center;fontStyle=4;" vertex="1" parent="1">
          <mxGeometry x="470" y="510" width="100" height="40" as="geometry" />
        </mxCell>
        <mxCell id="-XFVrn_bKcjzjWk29BsW-13" value="Nombre" style="ellipse;whiteSpace=wrap;html=1;align=center;" vertex="1" parent="1">
          <mxGeometry x="600" y="500" width="100" height="40" as="geometry" />
        </mxCell>
        <mxCell id="-XFVrn_bKcjzjWk29BsW-14" value="Dirección" style="ellipse;whiteSpace=wrap;html=1;align=center;" vertex="1" parent="1">
          <mxGeometry x="350" y="520" width="100" height="40" as="geometry" />
        </mxCell>
        <mxCell id="-XFVrn_bKcjzjWk29BsW-15" value="Población" style="ellipse;whiteSpace=wrap;html=1;align=center;" vertex="1" parent="1">
          <mxGeometry x="240" y="622" width="70" height="28" as="geometry" />
        </mxCell>
        <mxCell id="-XFVrn_bKcjzjWk29BsW-16" value="Código postal" style="ellipse;whiteSpace=wrap;html=1;align=center;" vertex="1" parent="1">
          <mxGeometry x="380" y="600" width="80" height="32" as="geometry" />
        </mxCell>
        <mxCell id="-XFVrn_bKcjzjWk29BsW-17" value="Número" style="ellipse;whiteSpace=wrap;html=1;align=center;" vertex="1" parent="1">
          <mxGeometry x="300" y="588" width="70" height="28" as="geometry" />
        </mxCell>
        <mxCell id="-XFVrn_bKcjzjWk29BsW-18" value="Calle" style="ellipse;whiteSpace=wrap;html=1;align=center;" vertex="1" parent="1">
          <mxGeometry x="245" y="560" width="70" height="28" as="geometry" />
        </mxCell>
        <mxCell id="-XFVrn_bKcjzjWk29BsW-19" value="Provincia" style="ellipse;whiteSpace=wrap;html=1;align=center;" vertex="1" parent="1">
          <mxGeometry x="340" y="650" width="80" height="32" as="geometry" />
        </mxCell>
        <mxCell id="-XFVrn_bKcjzjWk29BsW-20" value="Población" style="ellipse;whiteSpace=wrap;html=1;align=center;" vertex="1" parent="1">
          <mxGeometry y="451" width="70" height="28" as="geometry" />
        </mxCell>
        <mxCell id="-XFVrn_bKcjzjWk29BsW-21" value="Código postal" style="ellipse;whiteSpace=wrap;html=1;align=center;" vertex="1" parent="1">
          <mxGeometry x="140" y="429" width="80" height="32" as="geometry" />
        </mxCell>
        <mxCell id="-XFVrn_bKcjzjWk29BsW-22" value="Número" style="ellipse;whiteSpace=wrap;html=1;align=center;" vertex="1" parent="1">
          <mxGeometry x="60" y="417" width="70" height="28" as="geometry" />
        </mxCell>
        <mxCell id="-XFVrn_bKcjzjWk29BsW-23" value="Calle" style="ellipse;whiteSpace=wrap;html=1;align=center;" vertex="1" parent="1">
          <mxGeometry x="5" y="389" width="70" height="28" as="geometry" />
        </mxCell>
        <mxCell id="-XFVrn_bKcjzjWk29BsW-24" value="Provincia" style="ellipse;whiteSpace=wrap;html=1;align=center;" vertex="1" parent="1">
          <mxGeometry x="100" y="479" width="80" height="32" as="geometry" />
        </mxCell>
      </root>
    </mxGraphModel>
  </diagram>
</mxfile>
